<svg width="1478" height="1005" viewBox="0 0 1478 1005" fill="none" xmlns="http://www.w3.org/2000/svg"><path d="M884 0h592L943 900H351L884 0z" fill="url(#paint0_linear)"/><path d="M351 900h592l-536 900h-589l533-900z" fill="url(#paint1_linear)"/><path d="M886 0h592L945 900H353L886 0z" fill="url(#paint2_linear)"/><path d="M353 900h592l-536 900h-589l533-900z" fill="url(#paint3_linear)"/><path d="M-185 1800h594l-538 900h-589l533-900z" fill="url(#paint4_linear)"/><defs><linearGradient id="paint0_linear" x1="-2377" y1="1983.5" x2="-862.999" y2="2848" gradientUnits="userSpaceOnUse"><stop stop-color="#F39200"/><stop offset="1" stop-color="#FE6400"/></linearGradient><linearGradient id="paint1_linear" x1="-2377" y1="1983.5" x2="-862.999" y2="2848" gradientUnits="userSpaceOnUse"><stop stop-color="#F39200"/><stop offset="1" stop-color="#FE6400"/></linearGradient><linearGradient id="paint2_linear" x1="-2377" y1="1983.5" x2="-862.999" y2="2848" gradientUnits="userSpaceOnUse"><stop stop-color="#F39200"/><stop offset="1" stop-color="#FE6400"/></linearGradient><linearGradient id="paint3_linear" x1="-2377" y1="1983.5" x2="-862.999" y2="2848" gradientUnits="userSpaceOnUse"><stop stop-color="#F39200"/><stop offset="1" stop-color="#FE6400"/></linearGradient><linearGradient id="paint4_linear" x1="-2377" y1="1983.5" x2="-862.999" y2="2848" gradientUnits="userSpaceOnUse"><stop stop-color="#F39200"/><stop offset="1" stop-color="#FE6400"/></linearGradient></defs></svg>