<svg width="105" height="60" viewBox="0 0 105 60" fill="none" xmlns="http://www.w3.org/2000/svg"><path d="M35.32 34.333L47.413 1.164A1.794 1.794 0 0149.096 0h5.178c.751 0 1.425.466 1.683 1.164l6.888 18.913h2.667c.544 0 1.036.336 1.217.854l1.062 2.923c.103.285-.104.57-.414.57h-2.952l.647 1.733h2.667c.544 0 1.036.336 1.217.854l1.062 2.923c.103.285-.104.57-.414.57h-2.952l1.372 3.777c.104.285-.103.57-.414.57h-5.386a1.285 1.285 0 01-1.217-.855l-1.269-3.518H43.451c-.311 0-.518-.31-.415-.57l1.062-2.923a1.284 1.284 0 011.217-.854h12.818l-.648-1.733H45.652c-.311 0-.518-.31-.415-.57l1.062-2.923a1.284 1.284 0 011.217-.854h8.364L50.779 6.028c-.13-.388-.674-.388-.829 0l-10.176 28.02a1.285 1.285 0 01-1.217.854h-2.823c-.31 0-.518-.31-.414-.57z" fill="url(#paint0_linear)"/><path d="M7.665 50.037v-.155c.026 0 .103 0 .233-.026s.259-.051.388-.103a1.1 1.1 0 00.363-.233.51.51 0 00.155-.362 2.12 2.12 0 00-.078-.466c-.052-.207-.155-.492-.259-.802-.103-.31-.233-.673-.362-1.06a37.18 37.18 0 00-.44-1.217H3.366c-.155.414-.31.802-.466 1.165-.155.362-.31.75-.44 1.112-.233.57-.337.983-.337 1.216 0 .13.052.259.13.336.077.104.207.156.336.233.13.052.285.104.44.13.156.026.311.051.44.077v.155H0v-.18a1.6 1.6 0 00.725-.233c.207-.13.31-.208.337-.233.077-.078.207-.26.362-.544.181-.284.389-.698.622-1.242.233-.517.466-1.086.75-1.733.285-.647.57-1.32.855-1.992.285-.673.596-1.371.88-2.07.285-.699.57-1.345.83-1.94l-.156-.363c.181-.077.362-.18.518-.31.155-.13.284-.233.414-.362.13-.13.207-.259.31-.363.078-.129.156-.206.182-.284h.13c.336.88.647 1.733.957 2.535.311.802.596 1.579.855 2.303.285.75.544 1.449.803 2.147.259.699.517 1.372.776 2.044.13.337.233.621.337.828.104.233.207.466.337.75.026.052.077.13.155.233.078.104.181.207.31.337.13.103.286.207.467.31.181.078.388.13.647.156v.18H7.665v.026zm-2.098-9.753c-.077.129-.155.362-.285.672-.13.31-.284.673-.466 1.087-.181.44-.388.905-.595 1.449-.233.543-.466 1.138-.725 1.76h4.013a33.472 33.472 0 00-.57-1.45 39.836 39.836 0 00-.543-1.397c-.181-.44-.337-.854-.492-1.216-.13-.362-.233-.673-.337-.905zm22.063 9.754v-.182a2.972 2.972 0 001.165-.284c.31-.181.518-.362.621-.595.052-.13.104-.31.156-.518.026-.207.051-.414.077-.647.026-.698.026-1.397.026-2.018v-6.572c-.362.803-.673 1.527-.984 2.2-.285.673-.595 1.32-.88 1.94-.285.647-.596 1.294-.88 1.94a67.749 67.749 0 01-.985 2.174c-.051.104-.129.285-.233.518-.103.233-.18.465-.284.698-.104.233-.182.466-.285.673a5.6 5.6 0 01-.155.388h-.104a95.113 95.113 0 00-1.036-2.38c-.337-.776-.673-1.553-.984-2.277-.31-.725-.621-1.397-.906-2.044-.285-.647-.544-1.19-.751-1.682-.233-.491-.414-.905-.57-1.242-.155-.336-.233-.569-.31-.672v1.888c0 .544 0 1.087-.026 1.605V46.7c0 .517.026.931.051 1.32.026.362.104.672.233.93.13.26.337.44.596.596.259.155.622.259 1.088.31v.156h-4.221v-.156c.388-.077.673-.18.932-.336.233-.155.414-.336.57-.595.13-.259.233-.57.31-.957.078-.388.104-.854.104-1.397.026-.466.026-1.01.052-1.63 0-.621.026-1.294.026-2.018v-2.044c0-.207 0-.466-.026-.802 0-.31-.078-.544-.181-.725-.13-.18-.26-.336-.415-.44a1.87 1.87 0 00-.518-.233c-.18-.051-.336-.077-.466-.103v-.13h3.444l3.858 8.771c.466-1.009.933-2.044 1.399-3.053.44-1.008.854-1.914 1.217-2.742.362-.828.647-1.5.88-2.044.233-.543.363-.854.388-.931h3.444v.155c-.44 0-.776.103-1.01.285a1.32 1.32 0 00-.466.62c-.077.181-.103.466-.13.854-.025.388-.025.776-.05 1.139 0 .517-.027 1.009-.027 1.5v3.208c0 .57 0 1.165.026 1.811 0 .208.026.414.052.621.026.207.078.363.13.492 0 .026.051.078.129.155.078.078.181.156.31.259.13.103.285.181.493.233.18.077.414.103.673.13v.154H27.63v-.026zm13.697-.001v-.155c.026 0 .104 0 .233-.026a2.15 2.15 0 00.389-.103c.13-.052.259-.13.362-.233a.51.51 0 00.156-.362c0-.104-.026-.259-.078-.466-.052-.207-.156-.492-.26-.802-.103-.31-.232-.673-.362-1.06a35.87 35.87 0 00-.44-1.217H37.03c-.156.414-.311.802-.466 1.165-.156.362-.311.75-.44 1.112-.233.57-.337.983-.337 1.216 0 .13.052.259.13.336.077.104.207.156.336.233.13.052.285.104.44.13.155.026.31.051.44.077v.155h-3.444v-.18a1.6 1.6 0 00.725-.233 2.79 2.79 0 00.337-.233c.078-.078.207-.26.363-.544.18-.284.388-.698.621-1.242.233-.517.466-1.086.751-1.733s.57-1.32.855-1.992c.284-.673.595-1.371.88-2.07.285-.699.57-1.345.828-1.94l-.155-.363c.181-.077.363-.18.518-.31.155-.13.285-.233.414-.362.13-.13.207-.259.311-.363.078-.129.13-.206.181-.284h.13c.336.88.647 1.733.958 2.535.31.802.595 1.579.854 2.303.285.75.544 1.449.803 2.147.259.699.518 1.372.777 2.044.13.337.233.621.337.828.103.233.207.466.336.75.026.052.078.13.156.233.077.104.18.207.31.337.13.103.285.207.466.31.182.078.389.13.648.156v.18h-4.765v.026zm-2.123-9.753c-.078.129-.156.362-.285.672-.13.31-.285.673-.466 1.087-.181.44-.388.905-.596 1.449-.233.543-.466 1.138-.725 1.76h4.014a33.473 33.473 0 00-.57-1.45 40.053 40.053 0 00-.544-1.397c-.18-.44-.336-.854-.491-1.216-.13-.362-.233-.673-.337-.905zm16.339 9.754c-.104-.104-.156-.182-.207-.207a1.13 1.13 0 01-.156-.182c-.051-.077-.13-.155-.207-.284-.078-.13-.207-.31-.388-.57-.208-.31-.389-.569-.544-.801-.155-.233-.31-.492-.466-.725-.156-.233-.337-.465-.518-.724a13.857 13.857 0 00-.673-.802c-.208-.259-.44-.466-.7-.699a2.166 2.166 0 00-.802-.414c-.207-.052-.363-.052-.466-.052-.104 0-.233 0-.363-.025v1.81c0 .518 0 .958.026 1.294 0 .337.026.647.026.88 0 .259.078.44.181.62.078.13.26.286.492.44.26.156.596.233 1.036.26v.155h-5.153v-.156c.26-.051.518-.103.777-.18.259-.078.44-.208.57-.389a.585.585 0 00.13-.284c.025-.13.05-.285.077-.44.026-.156.026-.337.051-.518 0-.18.026-.362.026-.543v-.62c0-.26 0-.544.026-.855v-5.588c0-.207-.026-.388-.026-.57a20.427 20.427 0 00-.077-.491c-.026-.155-.078-.259-.156-.31a1.018 1.018 0 00-.543-.337 11.27 11.27 0 00-.725-.155v-.13h4.454c.724 0 1.372.026 1.916.052.57.052 1.061.181 1.527.44a3.31 3.31 0 011.14 1.01c.284.413.44.957.44 1.603 0 .389-.078.75-.207 1.061-.156.31-.337.595-.57.828-.233.233-.518.44-.855.621-.31.181-.673.31-1.01.44v.052c.182.103.363.232.544.414.182.18.337.388.492.62.285.414.596.854.907 1.32.336.466.621.906.88 1.268.388.569.777.957 1.165 1.216a3.26 3.26 0 001.32.491v.156h-3.391zm-1.606-10.039c-.259-.414-.673-.75-1.165-1.009a2.914 2.914 0 00-.803-.259 5.143 5.143 0 00-.906-.077c-.233 0-.414 0-.544.025-.13 0-.259.026-.31.026 0 .052-.026.13-.026.181 0 .052-.026.104-.026.182 0 .077 0 .18-.026.31 0 .13-.026.336-.026.57 0 .387-.026.801-.026 1.267v3.156c.44 0 .855-.025 1.243-.051a4.08 4.08 0 001.113-.233c.337-.104.648-.259.88-.44.26-.181.441-.388.596-.62a2.782 2.782 0 00.44-1.58c0-.542-.129-1.034-.414-1.448zm14.19 10.039l-.156-.078c-.052-.026-.103-.104-.181-.181a344.21 344.21 0 01-1.968-2.277c-.621-.724-1.269-1.449-1.916-2.173-.285-.31-.466-.518-.57-.57-.103-.077-.181-.103-.259-.103-.077 0-.155.026-.181.052-.026.026-.052.103-.078.18v1.605c0 .491 0 .931.026 1.268 0 .31.026.595.078.88.026.258.104.465.207.62.078.104.181.207.31.285.13.078.26.13.415.181.155.052.31.078.44.104.156.025.26.051.389.051v.156h-5.18v-.156c.26-.051.519-.103.778-.18.259-.078.44-.208.57-.363.051-.078.103-.155.129-.285.026-.129.052-.284.078-.44.025-.155.025-.336.025-.543V41.06c0-.414-.025-.776-.051-1.139-.026-.336-.104-.595-.207-.75a1.69 1.69 0 00-.544-.414 2.907 2.907 0 00-.751-.181v-.13h4.997v.156c-.207.026-.414.052-.595.078-.181.025-.363.129-.518.232-.156.13-.285.31-.389.57-.103.258-.155.595-.18 1.035 0 .258-.027.491-.027.698v3.234c.182-.13.466-.31.777-.595a17.02 17.02 0 001.036-.957c.362-.362.725-.725 1.061-1.087.363-.388.674-.699.933-.983.181-.207.336-.44.492-.673.155-.233.207-.44.207-.62 0-.311-.104-.544-.31-.673a2.162 2.162 0 00-.752-.285v-.13h4.325v.156c-.544.052-1.114.285-1.658.699-.57.413-1.14.88-1.709 1.422a8.407 8.407 0 00-.699.673l-.699.699-.673.672c-.207.233-.415.44-.596.621.078.104.285.337.596.699.31.362.673.776 1.113 1.268.44.491.88 1.009 1.373 1.552.492.543.958 1.087 1.424 1.578.103.13.233.259.362.388.13.13.285.233.415.337.129.103.233.18.336.258.104.078.156.13.181.13.13.051.337.103.57.155.233.052.518.103.803.103v.156h-3.6v.026zm14.034 0h-9.865v-.156c.259-.051.518-.103.75-.207a1.53 1.53 0 00.57-.414.584.584 0 00.13-.284c.026-.13.052-.259.078-.44.026-.155.051-.336.051-.518 0-.18.026-.362.026-.517v-.62c0-.26 0-.544.026-.855v-5.588c0-.207-.026-.388-.026-.57a21.23 21.23 0 00-.077-.491c-.026-.155-.078-.259-.156-.31a1.057 1.057 0 00-.518-.337 3.781 3.781 0 00-.699-.13v-.154h8.908l1.088 2.664-.156.078c-.88-1.087-1.683-1.811-2.46-2.199-.181-.078-.518-.155-1.01-.233a16.796 16.796 0 00-1.812-.103c-.234 0-.466 0-.7.025-.233.026-.414.026-.517.052a8.087 8.087 0 00-.052 1.061c-.026.543-.026 1.164-.026 1.863v2.302h.31c.156 0 .337 0 .57-.025.208 0 .415-.026.622-.052.207-.026.388-.052.517-.078.311-.077.596-.18.803-.31.207-.13.389-.285.518-.466a2.16 2.16 0 00.311-.647 5.93 5.93 0 00.207-.802h.181v5.071h-.181a4.802 4.802 0 00-.389-1.06c-.18-.363-.362-.647-.543-.828a1.876 1.876 0 00-.621-.363c-.234-.103-.518-.155-.855-.18-.155 0-.285-.027-.414-.027h-1.036c-.026.156-.026.363-.026.673v2.82c0 .336.026.673.052.983.026.31.078.544.181.673.104.155.337.259.7.31.362.078.75.104 1.19.104.182 0 .415 0 .7-.026.285 0 .595-.026.906-.078.336-.051.673-.129.958-.258a4 4 0 00.828-.518c.26-.233.519-.491.777-.828a9.58 9.58 0 00.777-1.19l.181.052-.777 3.13zm13.389-8.564a4.396 4.396 0 00-.312-.595c-.129-.207-.233-.414-.362-.596-.13-.18-.233-.362-.363-.517-.129-.155-.233-.259-.31-.336-.233-.207-.466-.362-.725-.44-.26-.078-.596-.104-1.01-.13h-2.046v8.823c0 .31 0 .62.026.906.026.284.078.491.156.595.155.233.388.388.673.491.285.078.57.156.802.181v.155h-5.23v-.155c.285-.026.543-.077.803-.155.259-.078.518-.259.75-.543a.611.611 0 00.13-.259c.026-.13.052-.259.078-.414.026-.155.026-.336.026-.517v-1.139c0-.258 0-.517.026-.828v-7.192h-2.047c-.414 0-.751.052-1.01.155a1.773 1.773 0 00-.725.44 4.77 4.77 0 00-.311.336c-.103.155-.232.31-.362.492-.13.18-.233.362-.362.569a3.762 3.762 0 00-.26.595l-.155-.052.492-3.053c.26.052.466.104.673.13.207.026.518.051.906.077.415 0 .778.026 1.088.026h4.921c.31 0 .621 0 .932-.026h1.088c.362 0 .647-.051.88-.077.233-.052.466-.104.725-.181l.518 3.13-.104.104zm9.113 6.778a2.81 2.81 0 01-.88 1.035 3.501 3.501 0 01-1.32.647 6.977 6.977 0 01-1.684.207c-.517 0-.984-.026-1.346-.104-.388-.051-.7-.129-.932-.232a4.299 4.299 0 01-.57-.26c-.13-.077-.207-.103-.233-.103-.026 0-.103.052-.207.181-.104.13-.207.26-.285.363h-.155l-.052-3.208h.155c.104.284.233.569.363.853.155.285.31.544.492.776.18.233.362.466.57.647.206.181.388.31.57.414.18.104.413.181.724.285.311.103.595.155.881.155.802 0 1.45-.207 1.942-.647.492-.44.75-1.035.75-1.76 0-.31-.052-.568-.155-.801a2.33 2.33 0 00-.389-.595 2.725 2.725 0 00-.595-.44 3.595 3.595 0 00-.725-.31 7.146 7.146 0 00-.673-.233 4.334 4.334 0 00-.544-.181c-.155-.052-.336-.13-.517-.182a6.87 6.87 0 01-.648-.232 3.476 3.476 0 01-.803-.44 2.77 2.77 0 01-.673-.673c-.181-.259-.362-.543-.466-.828-.13-.31-.182-.62-.182-.983 0-.57.104-1.087.311-1.5.208-.415.492-.777.855-1.035a3.505 3.505 0 011.243-.621c.466-.13.958-.207 1.475-.207.492 0 .907.051 1.244.129.336.078.621.181.854.259.207.103.388.18.492.258.104.078.182.13.182.13.025 0 .103-.078.206-.181.104-.13.208-.259.286-.388h.181v2.975h-.181a6.621 6.621 0 00-.492-1.06 4.41 4.41 0 00-.7-.932c-.259-.285-.569-.492-.932-.673-.337-.181-.725-.259-1.14-.259a2.69 2.69 0 00-.931.156 2.318 2.318 0 00-.778.44c-.206.18-.388.44-.517.724-.13.284-.181.62-.181.983 0 .57.18 1.035.517 1.371.337.337.778.621 1.347.828.207.078.414.155.595.233.181.078.363.13.544.181.181.052.363.13.544.181.181.052.388.13.596.207.725.259 1.294.647 1.709 1.164.414.518.595 1.139.595 1.915-.026.517-.129.957-.337 1.371z" fill="#fff"/><path d="M27.37 55.936a38.31 38.31 0 00-.751 1.423v1.993h-.803v-1.993c-.259-.491-.517-.957-.75-1.423-.26-.465-.493-.957-.752-1.423h.907l.595 1.19c.078.156.156.311.207.466.078.156.13.31.208.466h.025l.44-.957.57-1.19h.907c-.285.517-.544.983-.803 1.448zm2.253-.051c.259 0 .492.051.7.155.206.103.362.233.491.44.078.13.155.31.207.491.052.181.052.414.052.647 0 .259-.026.492-.052.673-.052.18-.103.362-.181.491-.13.207-.31.388-.544.492a1.859 1.859 0 01-.75.155 1.97 1.97 0 01-.7-.13c-.207-.077-.362-.232-.492-.413-.181-.285-.285-.699-.285-1.242 0-.181 0-.362.026-.543.026-.156.078-.31.13-.44.13-.259.31-.44.543-.595.26-.13.544-.181.855-.181zm-.026.698a.596.596 0 00-.362.104.633.633 0 00-.233.284.687.687 0 00-.078.31c-.026.104-.026.234-.026.363 0 .13 0 .259.026.362.026.104.052.207.078.285.051.13.13.207.233.284a.596.596 0 00.362.104.637.637 0 00.388-.13c.13-.077.208-.206.26-.362.025-.077.051-.155.051-.232 0-.104.026-.233.026-.363 0-.258-.026-.465-.103-.595a.707.707 0 00-.234-.31c-.155-.052-.258-.104-.388-.104zm3.029-.673v2.044c0 .233.051.414.155.518.103.103.259.18.492.18a.624.624 0 00.466-.18c.13-.13.181-.285.181-.518V55.91h.777v3.467h-.777v-.336h-.026a.8.8 0 01-.414.285c-.155.051-.31.103-.466.103-.363 0-.648-.103-.855-.31-.207-.207-.336-.518-.336-.932V55.91h.803zm4.428.725a.624.624 0 00-.466.18c-.13.13-.181.285-.181.518v2.07h-.777v-3.467h.777v.414h.026a.938.938 0 01.828-.44c.13 0 .26.026.363.052.103.026.207.078.31.13l-.284.724c-.104-.052-.182-.104-.285-.13-.13-.051-.207-.051-.31-.051zm4.506-.75c.258 0 .491.051.699.155.207.103.362.233.492.44.077.13.155.31.207.491.052.181.052.414.052.647 0 .259-.026.492-.052.673-.052.18-.104.362-.181.491a1.26 1.26 0 01-.544.492 1.858 1.858 0 01-.751.155 1.98 1.98 0 01-.7-.13c-.206-.077-.362-.232-.491-.413-.181-.285-.285-.699-.285-1.242 0-.181 0-.362.026-.543.026-.156.077-.31.13-.44a1.5 1.5 0 01.543-.595 1.87 1.87 0 01.855-.181zm-.026.698a.596.596 0 00-.363.104.634.634 0 00-.233.284.69.69 0 00-.078.31c-.026.104-.026.234-.026.363 0 .13 0 .259.026.362.026.104.052.207.078.285a.63.63 0 00.233.284.596.596 0 00.363.104.636.636 0 00.388-.13c.13-.077.207-.206.259-.362a.756.756 0 00.052-.232c0-.104.026-.233.026-.363 0-.258-.026-.465-.104-.595a.707.707 0 00-.233-.31c-.13-.052-.259-.104-.388-.104zm4.324 2.794v-2.044c0-.232-.052-.388-.155-.517-.104-.13-.26-.181-.492-.181-.181 0-.363.052-.466.181-.13.13-.182.285-.182.517v2.044h-.776V55.91h.776v.363h.026a.92.92 0 01.415-.285c.155-.078.336-.103.492-.103.362 0 .647.103.854.31.207.207.31.517.31.906v2.276h-.802zm2.642 0c-.13 0-.26-.026-.389-.051a.877.877 0 01-.31-.156.811.811 0 01-.208-.284 1.114 1.114 0 01-.077-.44V54.28h.802v4.036c0 .129.026.207.078.258.052.052.13.078.259.078h.13v.699H48.5v.025zm.931-4.139v-.725h.777v.725h-.777zm0 4.14V55.91h.777v3.467h-.777zm3.807-.001v-2.044c0-.232-.052-.388-.155-.517-.104-.13-.26-.181-.492-.181a.624.624 0 00-.466.181c-.13.13-.182.285-.182.517v2.044h-.802V55.91h.802v.363h.026a.92.92 0 01.415-.285c.155-.078.336-.103.492-.103.362 0 .647.103.854.31.207.207.31.517.31.906v2.276h-.802zm2.303-1.5c0 .103.026.207.052.31a.807.807 0 00.13.259.56.56 0 00.233.181.717.717 0 00.336.078c.104 0 .233-.026.389-.078a1.1 1.1 0 00.44-.259c.078.104.155.181.233.285.078.104.155.181.233.285-.207.18-.414.31-.647.388a2.03 2.03 0 01-.673.103c-.182 0-.363-.026-.544-.077a1.359 1.359 0 01-.492-.285c-.156-.13-.26-.31-.363-.543-.103-.233-.13-.518-.13-.88 0-.336.053-.62.13-.854.104-.233.207-.414.363-.543.155-.13.31-.233.492-.31.181-.052.362-.104.544-.104.233 0 .44.052.621.13.181.077.337.18.466.336.13.155.233.31.285.517.078.207.103.44.103.673v.336h-2.2v.052zm.674-1.268a.624.624 0 00-.466.181c-.13.13-.182.31-.208.544h1.321c-.026-.233-.078-.415-.207-.544-.104-.13-.259-.18-.44-.18zm6.94.983c0 .207-.026.414-.052.621a1.591 1.591 0 01-.181.595c-.078.181-.207.31-.388.44a1.197 1.197 0 01-.648.181c-.155 0-.31-.026-.466-.078a.846.846 0 01-.388-.284h-.026v.336h-.803v-5.07h.803v1.94h.026c.13-.13.259-.207.414-.285.155-.052.31-.078.44-.078.26 0 .466.052.622.156a1.2 1.2 0 01.388.414c.078.155.155.336.181.543.052.155.078.362.078.57zm-.828.052c0-.13 0-.233-.026-.362 0-.13-.052-.233-.078-.337-.052-.103-.104-.18-.207-.232a.67.67 0 00-.363-.104c-.155 0-.259.026-.336.104a1.008 1.008 0 00-.208.258.717.717 0 00-.077.337c-.026.129-.026.233-.026.336 0 .104 0 .233.026.336 0 .13.052.233.077.337a.657.657 0 00.208.258c.077.078.207.104.362.104s.26-.026.363-.104c.077-.077.155-.155.207-.258a.715.715 0 00.078-.337v-.336zm3.03-1.009a.624.624 0 00-.466.18c-.13.13-.182.285-.182.518v2.07h-.776v-3.467h.776v.414h.026a.938.938 0 01.829-.44c.13 0 .259.026.362.052.104.026.208.078.311.13l-.285.724c-.103-.052-.18-.104-.284-.13-.13-.051-.208-.051-.311-.051zm2.563-.75c.258 0 .491.051.699.155.207.103.362.233.492.44.077.13.155.31.207.491.052.181.051.414.051.647 0 .259-.025.492-.051.673-.052.18-.104.362-.182.491-.129.207-.31.388-.543.492a1.858 1.858 0 01-.751.155 1.98 1.98 0 01-.7-.13c-.207-.077-.362-.232-.491-.413-.182-.285-.285-.699-.285-1.242 0-.181 0-.362.026-.543.026-.156.077-.31.13-.44a1.5 1.5 0 01.543-.595 1.87 1.87 0 01.854-.181zm-.026.698a.595.595 0 00-.363.104.924.924 0 00-.259.284.69.69 0 00-.078.31c-.026.104-.026.234-.026.363 0 .13 0 .259.026.362.026.104.052.207.078.285a.63.63 0 00.233.284.596.596 0 00.363.104.636.636 0 00.388-.13c.13-.077.207-.206.259-.362a.747.747 0 00.052-.232c0-.104.026-.233.026-.363 0-.258-.026-.465-.104-.595a.708.708 0 00-.233-.31.845.845 0 00-.362-.104zm4.558 2.794c-.182-.258-.337-.517-.518-.776-.156-.259-.337-.517-.518-.776-.078.078-.156.181-.233.259-.078.077-.156.18-.233.258v1.01h-.803V54.28h.803v3.053h.026l.673-.777.595-.647h.958l-1.242 1.346c.233.362.466.698.699 1.06.233.363.466.7.699 1.061h-.906zm1.941-1.5c0 .103.026.207.052.31a.806.806 0 00.13.259.55.55 0 00.232.181.717.717 0 00.337.078c.104 0 .233-.026.388-.078a1.1 1.1 0 00.44-.259c.078.104.156.181.234.285.077.104.155.181.233.285-.207.18-.415.31-.648.388a2.03 2.03 0 01-.673.103c-.181 0-.362-.026-.544-.077a1.36 1.36 0 01-.492-.285c-.155-.13-.259-.31-.362-.543a2.747 2.747 0 01-.13-.88c0-.336.052-.62.13-.854.103-.233.207-.414.362-.543.156-.13.311-.233.492-.31.182-.052.363-.104.544-.104.233 0 .44.052.622.13.18.077.336.18.466.336.13.155.233.31.284.517.078.207.104.44.104.673v.336h-2.201v.052zm.673-1.268a.624.624 0 00-.466.181c-.13.13-.181.31-.207.544h1.32c-.025-.233-.077-.415-.206-.544-.104-.13-.26-.18-.44-.18zm3.73.026a.625.625 0 00-.467.18c-.129.13-.18.285-.18.518v2.07h-.803v-3.467h.777v.414h.025a.938.938 0 01.829-.44c.13 0 .26.026.363.052.103.026.207.078.31.13l-.285.724c-.103-.052-.18-.104-.284-.13-.104-.051-.208-.051-.285-.051z" fill="#EF7D00"/><path d="M16.728 45.38c0 .725-.596 1.32-1.32 1.32a1.325 1.325 0 01-1.321-1.32c0-.724.595-1.32 1.32-1.32.726.027 1.321.596 1.321 1.32z" fill="#fff"/><defs><linearGradient id="paint0_linear" x1="52.665" y1=".286" x2="52.665" y2="35.602" gradientUnits="userSpaceOnUse"><stop stop-color="#F39200"/><stop offset="1" stop-color="#F07E00"/></linearGradient></defs></svg>