<svg width="1140" height="650" viewBox="0 0 1140 650" fill="none" xmlns="http://www.w3.org/2000/svg"><mask id="a" maskUnits="userSpaceOnUse" x="0" y="0" width="1140" height="650"><rect width="1140" height="650" rx="39" fill="#FEC501"/></mask><g mask="url(#a)"><g filter="url(#filter0_f)"><ellipse cx="559" cy="309" rx="602" ry="410" fill="#fff"/></g><path d="M575.657 565.5h155.117L590.33 801H436l139.657-235.5z" fill="url(#paint0_linear)"/><path d="M715.884 330H871L730.774 565.5H576.226L715.884 330z" fill="url(#paint1_linear)"/><path d="M855.657 94.5h155.113L871 330H716L855.657 94.5z" fill="url(#paint2_linear)"/><path d="M995.884-141H1151L1010.77 94.5H856.226L995.884-141z" fill="url(#paint3_linear)"/><path d="M806.657 561.5h155.117L821.33 797H667l139.657-235.5z" fill="url(#paint4_linear)"/><path d="M946.884 326H1102L961.774 561.5H807.226L946.884 326z" fill="url(#paint5_linear)"/><path d="M1086.66 90.5h155.11L1102 326H947l139.66-235.5z" fill="url(#paint6_linear)"/><path d="M1226.88-145H1382L1241.77 90.5h-154.54L1226.88-145z" fill="url(#paint7_linear)"/></g><defs><linearGradient id="paint0_linear" x1="420.937" y1="-92.984" x2="817.373" y2="133.689" gradientUnits="userSpaceOnUse"><stop stop-color="#F39200"/><stop offset="1" stop-color="#FE6400"/></linearGradient><linearGradient id="paint1_linear" x1="420.937" y1="-92.984" x2="817.373" y2="133.689" gradientUnits="userSpaceOnUse"><stop stop-color="#F39200"/><stop offset="1" stop-color="#FE6400"/></linearGradient><linearGradient id="paint2_linear" x1="420.937" y1="-92.984" x2="817.373" y2="133.689" gradientUnits="userSpaceOnUse"><stop stop-color="#F39200"/><stop offset="1" stop-color="#FE6400"/></linearGradient><linearGradient id="paint3_linear" x1="420.937" y1="-92.984" x2="817.373" y2="133.689" gradientUnits="userSpaceOnUse"><stop stop-color="#F39200"/><stop offset="1" stop-color="#FE6400"/></linearGradient><linearGradient id="paint4_linear" x1="651.937" y1="-96.984" x2="1048.37" y2="129.689" gradientUnits="userSpaceOnUse"><stop stop-color="#F39200"/><stop offset="1" stop-color="#FE6400"/></linearGradient><linearGradient id="paint5_linear" x1="651.937" y1="-96.984" x2="1048.37" y2="129.689" gradientUnits="userSpaceOnUse"><stop stop-color="#F39200"/><stop offset="1" stop-color="#FE6400"/></linearGradient><linearGradient id="paint6_linear" x1="651.937" y1="-96.984" x2="1048.37" y2="129.689" gradientUnits="userSpaceOnUse"><stop stop-color="#F39200"/><stop offset="1" stop-color="#FE6400"/></linearGradient><linearGradient id="paint7_linear" x1="651.937" y1="-96.984" x2="1048.37" y2="129.689" gradientUnits="userSpaceOnUse"><stop stop-color="#F39200"/><stop offset="1" stop-color="#FE6400"/></linearGradient><filter id="filter0_f" x="-123" y="-181" width="1364" height="980" filterUnits="userSpaceOnUse" color-interpolation-filters="sRGB"><feFlood flood-opacity="0" result="BackgroundImageFix"/><feBlend in="SourceGraphic" in2="BackgroundImageFix" result="shape"/><feGaussianBlur stdDeviation="40" result="effect1_foregroundBlur"/></filter></defs></svg>