<svg width="105" height="60" viewBox="0 0 105 60" fill="none" xmlns="http://www.w3.org/2000/svg">
<path d="M35.3199 34.3328L47.4125 1.16426C47.6714 0.465705 48.3446 0 49.0955 0H54.2743C55.0252 0 55.6985 0.465705 55.9574 1.16426L62.8452 20.077H65.5123C66.0561 20.077 66.5481 20.4134 66.7293 20.9308L67.791 23.8544C67.8945 24.139 67.6874 24.4236 67.3767 24.4236H64.4248L65.0722 26.1571H67.7392C68.283 26.1571 68.775 26.4934 68.9563 27.0109L70.0179 29.9344C70.1214 30.219 69.9143 30.5036 69.6036 30.5036H66.6517L68.024 34.281C68.1276 34.5656 67.9205 34.8502 67.6097 34.8502H62.2238C61.6801 34.8502 61.188 34.5138 61.0067 33.9964L59.738 30.4778H43.4506C43.1399 30.4778 42.9328 30.1673 43.0363 29.9085L44.098 26.985C44.2792 26.4676 44.7712 26.1312 45.315 26.1312H58.1325L57.4852 24.3977H45.6516C45.3409 24.3977 45.1337 24.0873 45.2373 23.8285L46.299 20.9049C46.4802 20.3875 46.9722 20.0512 47.516 20.0512H55.8798L50.7786 6.02828C50.6491 5.6402 50.1054 5.6402 49.95 6.02828L39.7737 34.0482C39.5924 34.5656 39.1004 34.9019 38.5566 34.9019H35.7342C35.4235 34.9019 35.2164 34.5915 35.3199 34.3328Z" fill="url(#paint0_linear)"/>
<path d="M7.66463 50.0374V49.8822C7.69052 49.8822 7.7682 49.8822 7.89768 49.8563C8.02715 49.8305 8.15662 49.8046 8.28609 49.7528C8.41556 49.7011 8.54503 49.6235 8.64862 49.52C8.75214 49.4165 8.80397 49.2872 8.80397 49.1578C8.80397 49.0543 8.77809 48.8991 8.72626 48.6921C8.6745 48.4851 8.57091 48.2005 8.46732 47.89C8.36373 47.5796 8.23426 47.2174 8.10479 46.8293C7.97532 46.4412 7.81997 46.0273 7.66463 45.6133H3.36622C3.21085 46.0273 3.05549 46.4153 2.90012 46.7775C2.74476 47.1397 2.5894 47.5278 2.45993 47.89C2.22689 48.4592 2.12331 48.8732 2.12331 49.106C2.12331 49.2354 2.1751 49.3647 2.25278 49.4424C2.33046 49.5459 2.45993 49.5976 2.5894 49.6753C2.71887 49.727 2.87423 49.7787 3.02959 49.8046C3.18496 49.8305 3.34032 49.8563 3.46979 49.8822V50.0374H0V49.8563C0.284834 49.8305 0.51788 49.7528 0.725032 49.6235C0.932185 49.4941 1.03576 49.4165 1.06166 49.3906C1.13934 49.3131 1.26881 49.1319 1.42417 48.8473C1.60543 48.5627 1.81258 48.1488 2.04563 47.6055C2.27868 47.088 2.51172 46.5188 2.79656 45.872C3.08138 45.2252 3.36622 44.5525 3.65105 43.8798C3.93589 43.2071 4.24661 42.5086 4.53145 41.81C4.81628 41.1114 5.10112 40.4646 5.36006 39.8696L5.20469 39.5074C5.38595 39.4297 5.56721 39.3263 5.72257 39.1969C5.87794 39.0675 6.00741 38.9641 6.13688 38.8347C6.26635 38.7053 6.34403 38.576 6.44761 38.4725C6.52529 38.3431 6.60297 38.2655 6.62887 38.1879H6.75834C7.09496 39.0675 7.40568 39.9213 7.71641 40.7233C8.02715 41.5254 8.31197 42.3016 8.57091 43.0261C8.85573 43.7763 9.11467 44.4749 9.37361 45.1734C9.63255 45.872 9.89149 46.5447 10.1504 47.2174C10.2799 47.5537 10.3835 47.8383 10.4871 48.0452C10.5907 48.2781 10.6942 48.511 10.8237 48.7956C10.8496 48.8473 10.9014 48.925 10.9791 49.0284C11.0567 49.1319 11.1603 49.2354 11.2898 49.3647C11.4193 49.4682 11.5746 49.5718 11.7559 49.6753C11.9371 49.7528 12.1443 49.8046 12.4033 49.8305V50.0116H7.66463V50.0374ZM5.56721 40.2836C5.48953 40.4129 5.41185 40.6458 5.28238 40.9562C5.1529 41.2667 4.99754 41.6289 4.81628 42.0428C4.63502 42.4827 4.42787 42.9484 4.22072 43.4917C3.98767 44.035 3.75463 44.6301 3.49569 45.2511H7.50926C7.328 44.7594 7.14675 44.2938 6.93959 43.8022C6.75834 43.3106 6.57708 42.8449 6.39582 42.4051C6.21456 41.9653 6.0592 41.5513 5.90383 41.1891C5.77436 40.8269 5.67079 40.5164 5.56721 40.2836Z" fill="white"/>
<path d="M27.6296 50.0375V49.8564C28.0957 49.8305 28.4842 49.727 28.7949 49.5718C29.1055 49.3907 29.3127 49.2096 29.4163 48.9767C29.4681 48.8474 29.5198 48.6663 29.5717 48.4593C29.5976 48.2524 29.6234 48.0453 29.6493 47.8125C29.6753 47.1139 29.6753 46.4154 29.6753 45.7944C29.6753 45.1476 29.6753 44.4749 29.6753 43.8023V39.2229C29.3127 40.0249 29.002 40.7493 28.6913 41.422C28.4064 42.0947 28.0957 42.7415 27.8109 43.3624C27.526 44.0092 27.2153 44.656 26.9305 45.3029C26.6456 45.9755 26.309 46.7 25.9465 47.4762C25.8948 47.5797 25.817 47.7607 25.7134 47.9936C25.6099 48.2265 25.5322 48.4593 25.4286 48.6921C25.325 48.925 25.2474 49.1579 25.1438 49.3648C25.0661 49.5718 25.0143 49.7012 24.9885 49.7529H24.8849C24.5482 48.9509 24.2116 48.1747 23.8491 47.3726C23.5125 46.5965 23.1759 45.8203 22.8651 45.0959C22.5544 44.3714 22.2436 43.6987 21.9588 43.0519C21.674 42.4051 21.4151 41.8618 21.2079 41.3702C20.9749 40.8787 20.7936 40.4647 20.6382 40.1284C20.4829 39.792 20.4052 39.5592 20.3275 39.4557C20.3275 40.1542 20.3275 40.8011 20.3275 41.3443C20.3275 41.8877 20.3275 42.431 20.3016 42.9485C20.3016 43.4918 20.3016 44.0351 20.3016 44.6302C20.3016 45.2253 20.3016 45.898 20.3016 46.7C20.3016 47.2174 20.3275 47.6314 20.3534 48.0194C20.3793 48.3817 20.457 48.6921 20.5865 48.9509C20.7159 49.2096 20.9231 49.3907 21.182 49.546C21.4409 49.7012 21.8035 49.8047 22.2696 49.8564V50.0116H18.0488V49.8564C18.4372 49.7788 18.7221 49.6753 18.981 49.5201C19.2141 49.3648 19.3953 49.1837 19.5507 48.925C19.6802 48.6663 19.7837 48.3558 19.8614 47.9678C19.9391 47.5797 19.965 47.1139 19.965 46.5706C19.9909 46.1049 19.9909 45.5616 20.0168 44.9407C20.0168 44.3197 20.0426 43.6471 20.0426 42.9226C20.0426 42.6122 20.0426 42.3534 20.0426 42.1205C20.0426 41.9136 20.0426 41.7066 20.0426 41.4996C20.0426 41.2927 20.0426 41.0856 20.0426 40.8787C20.0426 40.6717 20.0426 40.413 20.0168 40.0766C20.0168 39.7661 19.9391 39.5333 19.8355 39.3522C19.7061 39.1711 19.5766 39.0158 19.4212 38.9124C19.2658 38.8089 19.0846 38.7312 18.9034 38.6795C18.7221 38.6278 18.5667 38.6019 18.4372 38.576V38.4467H21.8812L25.7393 47.2174C26.2055 46.2084 26.6716 45.1735 27.1376 44.1645C27.5779 43.1555 27.9922 42.2499 28.3546 41.422C28.7171 40.5941 29.002 39.9214 29.235 39.378C29.4681 38.8348 29.5976 38.5243 29.6234 38.4467H33.0674V38.6019C32.6271 38.6019 32.2906 38.7054 32.0575 38.8865C31.8244 39.0676 31.6691 39.2746 31.5914 39.5074C31.5137 39.6885 31.4878 39.9732 31.4619 40.3612C31.436 40.7493 31.436 41.1374 31.4101 41.4996C31.4101 42.017 31.3843 42.5086 31.3843 43.0002C31.3843 43.4918 31.3843 43.9834 31.3843 44.4749C31.3843 45.0441 31.3843 45.6392 31.3843 46.2084C31.3843 46.7776 31.3843 47.3726 31.4101 48.0194C31.4101 48.2265 31.436 48.4334 31.4619 48.6404C31.4878 48.8474 31.5396 49.0026 31.5914 49.132C31.5914 49.1579 31.6432 49.2096 31.7208 49.2873C31.7985 49.3648 31.9021 49.4425 32.0316 49.546C32.1611 49.6494 32.3164 49.727 32.5236 49.7788C32.7048 49.8564 32.9379 49.8823 33.1968 49.9082V50.0634H27.6296V50.0375Z" fill="white"/>
<path d="M41.3272 50.0374V49.8822C41.3531 49.8822 41.4308 49.8822 41.5603 49.8563C41.6897 49.8305 41.8192 49.8046 41.9487 49.7528C42.0782 49.7011 42.2076 49.6235 42.3112 49.52C42.4147 49.4165 42.4666 49.2872 42.4666 49.1578C42.4666 49.0543 42.4407 48.8991 42.3889 48.6921C42.3371 48.4851 42.2335 48.2005 42.1299 47.89C42.0263 47.5796 41.8969 47.2174 41.7674 46.8293C41.6379 46.4412 41.4826 46.0273 41.3272 45.6133H37.0288C36.8735 46.0273 36.718 46.4153 36.5627 46.7775C36.4073 47.1397 36.252 47.5278 36.1225 47.89C35.8895 48.4592 35.7859 48.8732 35.7859 49.106C35.7859 49.2354 35.8377 49.3647 35.9153 49.4424C35.9931 49.5459 36.1225 49.5976 36.252 49.6753C36.3815 49.727 36.5368 49.7787 36.6922 49.8046C36.8475 49.8305 37.0029 49.8563 37.1324 49.8822V50.0374H33.6885V49.8563C33.9733 49.8305 34.2064 49.7528 34.4135 49.6235C34.6206 49.4941 34.7242 49.4165 34.7501 49.3906C34.8278 49.3131 34.9573 49.1319 35.1126 48.8473C35.2939 48.5627 35.5011 48.1488 35.7341 47.6055C35.9672 47.088 36.2002 46.5188 36.4851 45.872C36.7699 45.2252 37.0547 44.5525 37.3395 43.8798C37.6243 43.2071 37.9351 42.5086 38.2199 41.81C38.5047 41.1114 38.7896 40.4646 39.0485 39.8696L38.8932 39.5074C39.0745 39.4297 39.2557 39.3263 39.411 39.1969C39.5664 39.0675 39.6959 38.9641 39.8253 38.8347C39.9548 38.7053 40.0325 38.576 40.1361 38.4725C40.2137 38.3431 40.2656 38.2655 40.3173 38.1879H40.4468C40.7835 39.0675 41.0942 39.9213 41.4049 40.7233C41.7156 41.5254 42.0004 42.3016 42.2594 43.0261C42.5442 43.7763 42.8031 44.4749 43.0621 45.1734C43.321 45.872 43.58 46.5447 43.8389 47.2174C43.9684 47.5537 44.072 47.8383 44.1756 48.0452C44.2792 48.2781 44.3827 48.511 44.5121 48.7956C44.5381 48.8473 44.5898 48.925 44.6676 49.0284C44.7452 49.1319 44.8488 49.2354 44.9783 49.3647C45.1077 49.4682 45.2631 49.5718 45.4444 49.6753C45.6256 49.7528 45.8328 49.8046 46.0917 49.8305V50.0116H41.3272V50.0374ZM39.2039 40.2836C39.1262 40.4129 39.0485 40.6458 38.919 40.9562C38.7896 41.2667 38.6342 41.6289 38.453 42.0428C38.2717 42.4827 38.0646 42.9484 37.8574 43.4917C37.6243 44.035 37.3914 44.6301 37.1324 45.2511H41.146C40.9647 44.7594 40.7835 44.2938 40.5763 43.8022C40.395 43.3106 40.2137 42.8449 40.0325 42.4051C39.8513 41.9653 39.6959 41.5513 39.5405 41.1891C39.411 40.8269 39.3075 40.5164 39.2039 40.2836Z" fill="white"/>
<path d="M55.5427 50.0375C55.4392 49.9341 55.3874 49.8564 55.3356 49.8306C55.2838 49.7788 55.232 49.727 55.1802 49.6494C55.1285 49.5718 55.0507 49.4942 54.9731 49.3648C54.8954 49.2355 54.7659 49.0543 54.5847 48.7956C54.3775 48.4852 54.1963 48.2265 54.0409 47.9936C53.8855 47.7607 53.7302 47.502 53.5748 47.2692C53.4195 47.0363 53.2382 46.8035 53.0569 46.5448C52.8757 46.3119 52.6426 46.0273 52.3837 45.7427C52.1765 45.484 51.9435 45.277 51.6845 45.0441C51.4256 44.8372 51.1666 44.7078 50.8818 44.6302C50.6747 44.5785 50.5193 44.5785 50.4158 44.5785C50.3122 44.5785 50.1827 44.5785 50.0532 44.5526C50.0532 45.2511 50.0532 45.8462 50.0532 46.3636C50.0532 46.8811 50.0532 47.3209 50.0791 47.6572C50.0791 47.9936 50.105 48.3041 50.105 48.5369C50.105 48.7956 50.1827 48.9767 50.2863 49.1579C50.3639 49.2873 50.5452 49.4425 50.7782 49.5977C51.0372 49.7529 51.3738 49.8305 51.814 49.8564V50.0116H46.6611V49.8564C46.9201 49.8047 47.179 49.7529 47.438 49.6753C47.6969 49.5977 47.8781 49.4683 48.0076 49.2873C48.0593 49.2355 48.1112 49.132 48.1371 49.0026C48.1629 48.8733 48.1888 48.718 48.2148 48.5628C48.2407 48.4075 48.2407 48.2265 48.2665 48.0453C48.2665 47.8643 48.2924 47.6831 48.2924 47.502C48.2924 47.3468 48.2924 47.1398 48.2924 46.8811C48.2924 46.6224 48.2924 46.3377 48.3183 46.0273C48.3183 45.7168 48.3183 45.4063 48.3183 45.0959C48.3183 44.7595 48.3183 44.4491 48.3183 44.1645V41.0339C48.3183 40.8528 48.3183 40.6459 48.3183 40.4388C48.3183 40.2319 48.2924 40.0507 48.2924 39.8697C48.2665 39.6885 48.2407 39.5333 48.2148 39.378C48.1888 39.2229 48.1371 39.1193 48.0594 39.0676C47.904 38.8865 47.7228 38.783 47.5156 38.7312C47.3085 38.6795 47.0754 38.6278 46.7906 38.576V38.4467C46.8682 38.4467 47.1013 38.4467 47.4638 38.4467C47.8264 38.4467 48.2407 38.4467 48.7067 38.4467C49.1728 38.4467 49.6389 38.4467 50.105 38.4467C50.5711 38.4467 50.9336 38.4467 51.2443 38.4467C51.9694 38.4467 52.6168 38.4725 53.1605 38.4984C53.7302 38.5502 54.2222 38.6795 54.6883 38.9383C55.1543 39.197 55.5427 39.5333 55.8276 39.9473C56.1125 40.3612 56.2678 40.9046 56.2678 41.5514C56.2678 41.9395 56.1901 42.3017 56.0606 42.6122C55.9053 42.9226 55.724 43.2072 55.491 43.44C55.2579 43.6729 54.9731 43.8799 54.6364 44.061C54.3257 44.2421 53.9632 44.3714 53.6266 44.5008V44.5526C53.8079 44.656 53.9891 44.7854 54.1704 44.9666C54.3516 45.1476 54.507 45.3546 54.6623 45.5875C54.9472 46.0014 55.2579 46.4412 55.5686 46.907C55.9053 47.3726 56.1901 47.8125 56.449 48.1747C56.8374 48.7439 57.2259 49.132 57.6143 49.3907C58.0027 49.6494 58.4428 49.8047 58.9348 49.8823V50.0375H55.5427ZM53.9373 39.999C53.6784 39.5851 53.2641 39.2487 52.7721 38.99C52.5132 38.8606 52.2542 38.783 51.9694 38.7312C51.6845 38.6795 51.3738 38.6537 51.0631 38.6537C50.8301 38.6537 50.6488 38.6536 50.5193 38.6795C50.3898 38.6795 50.2603 38.7054 50.2086 38.7054C50.2086 38.7571 50.1827 38.8348 50.1827 38.8865C50.1827 38.9383 50.1568 38.9899 50.1568 39.0676C50.1568 39.1452 50.1568 39.2487 50.1309 39.378C50.1309 39.5074 50.105 39.7144 50.105 39.9473C50.105 40.3353 50.0791 40.7493 50.0791 41.215C50.0791 41.6807 50.0791 42.1464 50.0791 42.5863C50.0791 43.0261 50.0791 43.4142 50.0791 43.7505C50.0791 44.061 50.0791 44.268 50.0791 44.3714C50.5193 44.3714 50.9337 44.3456 51.3221 44.3197C51.7105 44.2939 52.0729 44.2162 52.4355 44.0868C52.7721 43.9834 53.0828 43.8281 53.3159 43.6471C53.5748 43.4659 53.756 43.259 53.9115 43.0261C54.0668 42.7932 54.1704 42.5345 54.248 42.2758C54.3258 42.017 54.3516 41.7324 54.3516 41.4479C54.3516 40.9046 54.2222 40.413 53.9373 39.999Z" fill="white"/>
<path d="M68.1266 50.0375C68.0748 50.0116 68.023 49.9857 67.9712 49.9599C67.9194 49.9341 67.8676 49.8564 67.7899 49.7788C67.0908 48.9768 66.4435 48.2265 65.822 47.502C65.2006 46.7776 64.5532 46.0531 63.9059 45.3287C63.621 45.0182 63.4398 44.8113 63.3362 44.7595C63.2326 44.6819 63.1549 44.656 63.0772 44.656C62.9996 44.656 62.9219 44.6819 62.896 44.7078C62.8701 44.7337 62.8442 44.8113 62.8183 44.8889C62.8183 45.4581 62.8183 45.9756 62.8183 46.493C62.8183 46.9845 62.8183 47.4244 62.8442 47.7607C62.8442 48.0712 62.8701 48.3558 62.9219 48.6404C62.9478 48.8992 63.0255 49.1061 63.1291 49.2614C63.2067 49.3648 63.3103 49.4683 63.4398 49.546C63.5692 49.6236 63.6987 49.6753 63.8541 49.727C64.0094 49.7788 64.1648 49.8047 64.2943 49.8306C64.4497 49.8564 64.5532 49.8823 64.6827 49.8823V50.0375H59.5039V49.8823C59.7628 49.8305 60.0218 49.7788 60.2807 49.7012C60.5397 49.6236 60.7209 49.4942 60.8504 49.3389C60.9021 49.2614 60.954 49.1837 60.9798 49.0544C61.0057 48.925 61.0316 48.7698 61.0575 48.6146C61.0834 48.4593 61.0834 48.2782 61.0834 48.0712C61.0834 47.8901 61.0834 47.709 61.0834 47.5279C61.0834 47.3726 61.0834 47.1657 61.0834 46.907C61.0834 46.6482 61.0834 46.3636 61.0834 46.079C61.0834 45.7686 61.0834 45.4581 61.0834 45.1218C61.0834 44.7854 61.0834 44.4749 61.0834 44.1904V41.0598C61.0834 40.6459 61.0576 40.2836 61.0316 39.9214C61.0057 39.5851 60.9281 39.3263 60.8245 39.1711C60.6691 38.9899 60.4878 38.8606 60.2807 38.7571C60.0735 38.6795 59.8146 38.6019 59.5298 38.576V38.4467H64.5273V38.6019C64.3202 38.6278 64.113 38.6536 63.9318 38.6795C63.7505 38.7054 63.5692 38.8089 63.4139 38.9124C63.2585 39.0417 63.129 39.2229 63.0255 39.4816C62.9219 39.7403 62.8701 40.0766 62.8442 40.5165C62.8442 40.7752 62.8183 41.008 62.8183 41.215C62.8183 41.422 62.8183 41.6807 62.8183 41.9654C62.8183 42.2499 62.8183 42.5863 62.8183 42.9744C62.8183 43.3624 62.8183 43.854 62.8183 44.4491C62.9996 44.3197 63.2844 44.1386 63.5951 43.854C63.9318 43.5694 64.2684 43.259 64.6309 42.8967C64.9934 42.5345 65.3559 42.1723 65.6925 41.8101C66.0551 41.422 66.3658 41.1115 66.6247 40.8269C66.806 40.62 66.9613 40.3871 67.1167 40.1542C67.272 39.9214 67.3239 39.7144 67.3239 39.5333C67.3239 39.2229 67.2203 38.99 67.0131 38.8606C66.806 38.7312 66.5471 38.6278 66.2622 38.576V38.4467H70.5865V38.6019C70.0427 38.6537 69.473 38.8865 68.9293 39.3005C68.3596 39.7144 67.7899 40.1801 67.2203 40.7234C66.9872 40.9304 66.7542 41.1374 66.5212 41.3961C66.2881 41.629 66.0551 41.8618 65.822 42.0947C65.5889 42.3275 65.3559 42.5604 65.1488 42.7674C64.9416 43.0002 64.7345 43.2072 64.5532 43.3883C64.6309 43.4918 64.8381 43.7246 65.1488 44.0868C65.4595 44.4491 65.822 44.863 66.2622 45.3546C66.7024 45.8462 67.1426 46.3636 67.6346 46.907C68.1266 47.4503 68.5927 47.9936 69.0587 48.4852C69.1623 48.6146 69.2918 48.7439 69.4213 48.8733C69.5507 49.0026 69.7061 49.1061 69.8356 49.2096C69.965 49.3131 70.0686 49.3907 70.1722 49.4683C70.2758 49.546 70.3276 49.5977 70.3534 49.5977C70.4829 49.6494 70.6901 49.7012 70.9232 49.7529C71.1561 49.8047 71.441 49.8564 71.7259 49.8564V50.0116H68.1266V50.0375Z" fill="white"/>
<path d="M82.1614 50.0375H72.2959V49.8823C72.5548 49.8305 72.8138 49.7788 73.0468 49.6753C73.2799 49.5718 73.4611 49.4424 73.6165 49.2614C73.6683 49.2096 73.7201 49.1061 73.746 48.9767C73.7718 48.8474 73.7978 48.718 73.8237 48.5369C73.8495 48.3817 73.8754 48.2006 73.8754 48.0194C73.8754 47.8384 73.9013 47.6572 73.9013 47.502C73.9013 47.3468 73.9013 47.1398 73.9013 46.8811C73.9013 46.6224 73.9013 46.3377 73.9273 46.0273C73.9273 45.7168 73.9273 45.4063 73.9273 45.0959C73.9273 44.7595 73.9273 44.4491 73.9273 44.1645V41.0339C73.9273 40.8528 73.9273 40.6459 73.9273 40.4388C73.9273 40.2319 73.9013 40.0507 73.9013 39.8697C73.8754 39.6885 73.8495 39.5333 73.8237 39.378C73.7978 39.2229 73.746 39.1193 73.6683 39.0676C73.5129 38.8865 73.3317 38.783 73.1504 38.7312C72.9691 38.6795 72.7361 38.6278 72.4513 38.6019V38.4467H81.3586L82.4466 41.1115L82.2911 41.1892C81.4106 40.1025 80.6079 39.378 79.8307 38.99C79.6497 38.9124 79.3132 38.8348 78.8212 38.7571C78.3293 38.7054 77.7333 38.6537 77.0086 38.6537C76.7755 38.6537 76.5425 38.6536 76.3095 38.6795C76.0764 38.7054 75.8952 38.7054 75.7916 38.7312C75.7657 38.9124 75.7398 39.2487 75.7398 39.792C75.7139 40.3353 75.7139 40.9563 75.7139 41.6548C75.7139 42.0688 75.7139 42.4051 75.7139 42.6897C75.7139 42.9744 75.7139 43.2072 75.7139 43.3624C75.7139 43.5436 75.7139 43.6729 75.7139 43.7764C75.7139 43.854 75.7139 43.9317 75.7139 43.9575C75.7657 43.9575 75.8692 43.9575 76.0247 43.9575C76.18 43.9575 76.3612 43.9575 76.5943 43.9317C76.8015 43.9317 77.0086 43.9058 77.2158 43.8799C77.4229 43.854 77.6042 43.8281 77.7333 43.8023C78.0441 43.7246 78.3293 43.6212 78.536 43.4918C78.7435 43.3624 78.9246 43.2072 79.0544 43.0261C79.1834 42.845 79.2875 42.638 79.3652 42.3793C79.443 42.1464 79.5207 41.8618 79.572 41.5773H79.753V46.6482H79.572C79.4942 46.3119 79.3652 45.9497 79.1834 45.5875C79.0023 45.2253 78.8212 44.9407 78.6402 44.7595C78.4583 44.6043 78.2516 44.4749 78.0185 44.3973C77.7853 44.2939 77.5006 44.2421 77.1639 44.2162C77.0086 44.2162 76.8791 44.1904 76.7496 44.1904C76.6461 44.1904 76.5425 44.1904 76.4389 44.1904C76.3354 44.1904 76.2318 44.1904 76.1282 44.1904C76.0247 44.1904 75.8692 44.1904 75.7139 44.1904C75.688 44.3456 75.688 44.5526 75.688 44.863C75.688 45.1476 75.688 45.4581 75.688 45.7686C75.688 45.898 75.688 46.079 75.688 46.2602C75.688 46.4412 75.688 46.6224 75.688 46.8035C75.688 46.9845 75.688 47.1398 75.688 47.2951C75.688 47.4503 75.688 47.5797 75.688 47.6831C75.688 48.0194 75.7139 48.3558 75.7398 48.6663C75.7657 48.9768 75.8175 49.2096 75.9211 49.3389C76.0247 49.4942 76.2576 49.5977 76.6202 49.6494C76.9827 49.727 77.3711 49.7529 77.811 49.7529C77.9928 49.7529 78.226 49.7529 78.5104 49.727C78.7956 49.727 79.1057 49.7012 79.4165 49.6494C79.753 49.5977 80.0903 49.5201 80.3747 49.3907C80.6599 49.2614 80.9444 49.0802 81.2032 48.8733C81.4627 48.6404 81.7215 48.3817 81.9803 48.0453C82.2391 47.709 82.4979 47.3209 82.7574 46.8552L82.9385 46.907L82.1614 50.0375Z" fill="white"/>
<path d="M95.5493 41.4737C95.4715 41.2925 95.3682 41.0856 95.2384 40.8786C95.1094 40.6716 95.0053 40.4646 94.8763 40.2835C94.7465 40.1024 94.6431 39.9213 94.5133 39.7661C94.3843 39.6108 94.2802 39.5074 94.2033 39.4297C93.9701 39.2228 93.737 39.0675 93.4782 38.9899C93.2186 38.9123 92.8821 38.8864 92.4679 38.8606C92.2612 38.8606 92.0794 38.8606 91.9239 38.8606C91.7685 38.8606 91.6139 38.8606 91.4841 38.8606C91.3543 38.8606 91.1989 38.8606 91.0178 38.8606C90.8624 38.8606 90.6557 38.8606 90.4225 38.8606C90.4225 39.1193 90.4225 39.5074 90.4225 39.9471C90.4225 40.4129 90.4225 40.9045 90.4225 41.396C90.4225 41.9134 90.4225 42.4051 90.4225 42.8967C90.4225 43.3882 90.4225 43.7763 90.4225 44.1126V47.683C90.4225 47.9935 90.4225 48.3039 90.4482 48.5885C90.4738 48.8732 90.5259 49.0801 90.6036 49.1837C90.759 49.4165 90.9922 49.5718 91.2766 49.6752C91.5618 49.7528 91.8462 49.8305 92.0794 49.8563V50.0115H86.8493V49.8563C87.1337 49.8305 87.3925 49.7787 87.652 49.7011C87.9108 49.6234 88.1696 49.4424 88.4028 49.1578C88.454 49.106 88.5061 49.0025 88.5318 48.8991C88.5582 48.7697 88.5838 48.6403 88.6095 48.4851C88.6359 48.3298 88.6359 48.1488 88.6359 47.9676C88.6359 47.7865 88.6359 47.6054 88.6359 47.4243C88.6359 47.269 88.6359 47.088 88.6359 46.8293C88.6359 46.5706 88.6359 46.3118 88.6615 46.0013C88.6615 45.6908 88.6615 45.3804 88.6615 45.0699C88.6615 44.7595 88.6615 44.449 88.6615 44.1385V38.8088C88.4284 38.8088 88.2473 38.8088 88.0663 38.8088C87.9108 38.8088 87.7554 38.8088 87.6 38.8088C87.4702 38.8088 87.3148 38.8088 87.1593 38.8088C87.0047 38.8088 86.8228 38.8088 86.6161 38.8088C86.2019 38.8088 85.8646 38.8606 85.6059 38.964C85.3471 39.0416 85.0883 39.1969 84.8808 39.4038C84.8031 39.4815 84.6997 39.585 84.5699 39.7402C84.4666 39.8955 84.3376 40.0507 84.2078 40.2318C84.078 40.4129 83.9747 40.594 83.8456 40.801C83.7415 41.0079 83.6382 41.215 83.5861 41.396L83.4307 41.3443L83.9234 38.2913C84.1821 38.3431 84.3889 38.3948 84.5964 38.4207C84.8031 38.4466 85.1139 38.4725 85.5025 38.4983C85.9167 38.4983 86.2796 38.5242 86.5897 38.5242C86.9006 38.5242 87.2114 38.5242 87.5223 38.5242C87.8331 38.5242 88.1175 38.5242 88.4284 38.5242C88.7393 38.5242 89.1014 38.5242 89.5164 38.5242C89.9042 38.5242 90.2671 38.5242 90.5779 38.5242C90.8888 38.5242 91.2253 38.5242 91.5097 38.5242C91.8206 38.5242 92.1314 38.5242 92.4423 38.4983C92.7531 38.4983 93.1409 38.4983 93.5295 38.4983C93.8924 38.4983 94.1768 38.4466 94.41 38.4207C94.6431 38.3689 94.8763 38.3172 95.135 38.2396L95.6526 41.3701L95.5493 41.4737Z" fill="white"/>
<path d="M104.663 48.2522C104.457 48.6662 104.171 49.0025 103.783 49.2871C103.421 49.5718 102.98 49.8046 102.463 49.9339C101.945 50.0633 101.375 50.1409 100.779 50.1409C100.262 50.1409 99.7954 50.1151 99.4325 50.0374C99.0447 49.9857 98.7339 49.908 98.5007 49.8046C98.2419 49.7011 98.0609 49.6234 97.9311 49.5459C97.8013 49.4682 97.7236 49.4424 97.698 49.4424C97.6723 49.4424 97.5946 49.4941 97.4905 49.6234C97.3871 49.7528 97.2837 49.8822 97.206 49.9857H97.0506L96.9985 46.7775H97.154C97.2581 47.0621 97.3871 47.3467 97.5169 47.6313C97.6723 47.9158 97.8277 48.1746 98.0088 48.4075C98.1899 48.6403 98.3709 48.8732 98.5784 49.0543C98.7852 49.2354 98.967 49.3647 99.1481 49.4682C99.3292 49.5718 99.5623 49.6493 99.8731 49.7528C100.184 49.8564 100.468 49.9081 100.754 49.9081C101.556 49.9081 102.204 49.7011 102.696 49.2612C103.188 48.8214 103.446 48.2264 103.446 47.5019C103.446 47.1915 103.394 46.9327 103.291 46.6999C103.188 46.467 103.058 46.2859 102.902 46.1048C102.747 45.9496 102.54 45.7944 102.307 45.665C102.074 45.5356 101.841 45.4321 101.582 45.3545C101.323 45.251 101.09 45.1734 100.909 45.1217C100.727 45.044 100.546 44.9923 100.365 44.9405C100.21 44.8888 100.029 44.8112 99.8475 44.7594C99.6656 44.7077 99.4589 44.6301 99.2002 44.5266C98.9149 44.4231 98.6562 44.2678 98.3974 44.0868C98.1378 43.9057 97.9054 43.6728 97.7236 43.4141C97.5425 43.1554 97.3615 42.8708 97.2581 42.5861C97.1283 42.2757 97.0762 41.9652 97.0762 41.603C97.0762 41.0338 97.1804 40.5164 97.3871 40.1024C97.5946 39.6884 97.879 39.3262 98.2419 39.0675C98.6041 38.7829 99.0183 38.576 99.4846 38.4466C99.9509 38.3172 100.443 38.2396 100.96 38.2396C101.452 38.2396 101.867 38.2913 102.204 38.3689C102.54 38.4466 102.825 38.5501 103.058 38.6276C103.265 38.7312 103.446 38.8088 103.55 38.8864C103.654 38.964 103.732 39.0157 103.732 39.0157C103.757 39.0157 103.835 38.9381 103.938 38.8347C104.042 38.7053 104.146 38.576 104.224 38.4466H104.405V41.4219H104.224C104.094 41.0597 103.938 40.7233 103.732 40.3611C103.524 39.9989 103.291 39.6884 103.032 39.4297C102.773 39.1451 102.463 38.9381 102.1 38.757C101.763 38.576 101.375 38.4983 100.96 38.4983C100.624 38.4983 100.313 38.5501 100.029 38.6535C99.7434 38.757 99.4846 38.8864 99.2514 39.0934C99.0447 39.2745 98.8629 39.5332 98.7339 39.8178C98.6041 40.1024 98.5528 40.4388 98.5528 40.801C98.5528 41.3701 98.7339 41.8359 99.0704 42.1722C99.4069 42.5086 99.8475 42.7931 100.417 43.0001C100.624 43.0777 100.831 43.1554 101.012 43.233C101.193 43.3106 101.375 43.3623 101.556 43.4141C101.737 43.4658 101.919 43.5435 102.1 43.5952C102.281 43.6469 102.488 43.7245 102.696 43.8022C103.421 44.0609 103.99 44.449 104.405 44.9664C104.819 45.4839 105 46.1048 105 46.881C104.974 47.3984 104.871 47.8383 104.663 48.2522Z" fill="white"/>
<path d="M27.37 55.9364C27.111 56.4022 26.8521 56.8937 26.619 57.3594V59.3516H25.8163V57.3594C25.5574 56.8678 25.2985 56.4022 25.0654 55.9364C24.8065 55.4707 24.5734 54.9792 24.3145 54.5134H25.2207L25.8163 55.7036C25.894 55.8588 25.9717 56.0141 26.0234 56.1693C26.1012 56.3245 26.1529 56.4797 26.2306 56.635H26.2565L26.6967 55.6777L27.2664 54.4875H28.1727C27.8879 55.005 27.6289 55.4707 27.37 55.9364Z" fill="#EF7D00"/>
<path d="M29.623 55.8846C29.8819 55.8846 30.115 55.9364 30.3222 56.0398C30.5293 56.1434 30.6847 56.2727 30.8142 56.4797C30.8918 56.6091 30.9695 56.7902 31.0213 56.9713C31.0731 57.1524 31.0731 57.3852 31.0731 57.6181C31.0731 57.8768 31.0472 58.1096 31.0213 58.2908C30.9695 58.4719 30.9177 58.6529 30.84 58.7823C30.7106 58.9893 30.5293 59.1704 30.2963 59.2739C30.0632 59.3774 29.8043 59.4291 29.5453 59.4291C29.2864 59.4291 29.0533 59.3774 28.8462 59.2998C28.6391 59.2222 28.4837 59.0669 28.3542 58.8858C28.1729 58.6013 28.0693 58.1873 28.0693 57.644C28.0693 57.4628 28.0693 57.2818 28.0953 57.1006C28.1212 56.9454 28.1729 56.7902 28.2248 56.6608C28.3542 56.4021 28.5355 56.221 28.7685 56.0657C29.0275 55.9364 29.3123 55.8846 29.623 55.8846ZM29.5971 56.5832C29.4676 56.5832 29.3382 56.6091 29.2346 56.6866C29.1311 56.7643 29.0533 56.8419 29.0016 56.9713C28.9497 57.0747 28.9239 57.1783 28.9239 57.2818C28.898 57.3852 28.898 57.5146 28.898 57.644C28.898 57.7733 28.898 57.9027 28.9239 58.0061C28.9498 58.1096 28.9756 58.2132 29.0016 58.2908C29.0533 58.4201 29.1311 58.4978 29.2346 58.5754C29.3382 58.6529 29.4676 58.6788 29.5971 58.6788C29.7524 58.6788 29.8819 58.6271 29.9855 58.5495C30.115 58.4719 30.1927 58.3425 30.2445 58.1873C30.2703 58.1096 30.2963 58.032 30.2963 57.9545C30.2963 57.8509 30.3222 57.7216 30.3222 57.5922C30.3222 57.3335 30.2963 57.1265 30.2186 56.9971C30.1668 56.8678 30.0891 56.7643 29.9855 56.6866C29.8302 56.635 29.7266 56.5832 29.5971 56.5832Z" fill="#EF7D00"/>
<path d="M32.6255 55.9104V57.9543C32.6255 58.1872 32.6773 58.3682 32.7809 58.4717C32.8844 58.5753 33.0398 58.6529 33.2728 58.6529C33.4541 58.6529 33.6095 58.6011 33.7389 58.4717C33.8684 58.3424 33.9202 58.1872 33.9202 57.9543V55.9104H34.697V59.3773H33.9202V59.0409H33.8943C33.7907 59.1703 33.6612 59.2738 33.48 59.3256C33.3246 59.3773 33.1693 59.429 33.0139 59.429C32.6514 59.429 32.3665 59.3256 32.1594 59.1186C31.9522 58.9116 31.8228 58.6011 31.8228 58.1872V55.9104H32.6255Z" fill="#EF7D00"/>
<path d="M37.0541 56.6348C36.8728 56.6348 36.7174 56.6865 36.5879 56.8159C36.4585 56.9453 36.4067 57.1005 36.4067 57.3334V59.4031H35.6299V55.9363H36.4067V56.3503H36.4326C36.6397 56.0397 36.9246 55.9104 37.2612 55.9104C37.3906 55.9104 37.5201 55.9363 37.6237 55.9622C37.7273 55.988 37.8308 56.0397 37.9344 56.0915L37.6496 56.8159C37.546 56.7642 37.4683 56.7124 37.3648 56.6865C37.2353 56.6348 37.1576 56.6348 37.0541 56.6348Z" fill="#EF7D00"/>
<path d="M41.5595 55.8846C41.8184 55.8846 42.0515 55.9364 42.2587 56.0398C42.4658 56.1434 42.6211 56.2727 42.7506 56.4797C42.8283 56.6091 42.906 56.7902 42.9578 56.9713C43.0096 57.1524 43.0096 57.3852 43.0096 57.6181C43.0096 57.8768 42.9837 58.1096 42.9578 58.2908C42.906 58.4719 42.8542 58.6529 42.7766 58.7823C42.6471 58.9893 42.4658 59.1704 42.2327 59.2739C41.9997 59.3774 41.7408 59.4291 41.4819 59.4291C41.2229 59.4291 40.9899 59.3774 40.7827 59.2998C40.5756 59.2222 40.4201 59.0669 40.2907 58.8858C40.1095 58.6013 40.0059 58.1873 40.0059 57.644C40.0059 57.4628 40.0059 57.2818 40.0317 57.1006C40.0577 56.9454 40.1094 56.7902 40.1612 56.6608C40.2907 56.4021 40.472 56.221 40.705 56.0657C40.964 55.9364 41.2488 55.8846 41.5595 55.8846ZM41.5336 56.5832C41.4042 56.5832 41.2747 56.6091 41.1711 56.6866C41.0675 56.7643 40.9899 56.8419 40.938 56.9713C40.8863 57.0747 40.8604 57.1783 40.8604 57.2818C40.8345 57.3852 40.8345 57.5146 40.8345 57.644C40.8345 57.7733 40.8345 57.9027 40.8604 58.0061C40.8863 58.1096 40.9122 58.2132 40.938 58.2908C40.9899 58.4201 41.0675 58.4978 41.1711 58.5754C41.2747 58.6529 41.4042 58.6788 41.5336 58.6788C41.689 58.6788 41.8184 58.6271 41.922 58.5495C42.0515 58.4719 42.1292 58.3425 42.181 58.1873C42.2069 58.1096 42.2327 58.032 42.2327 57.9545C42.2327 57.8509 42.2587 57.7216 42.2587 57.5922C42.2587 57.3335 42.2327 57.1265 42.1551 56.9971C42.1033 56.8678 42.0256 56.7643 41.922 56.6866C41.7926 56.635 41.6631 56.5832 41.5336 56.5832Z" fill="#EF7D00"/>
<path d="M45.8581 59.3774V57.3335C45.8581 57.1006 45.8063 56.9454 45.7027 56.816C45.5991 56.6866 45.4438 56.6349 45.2107 56.6349C45.0295 56.6349 44.8483 56.6866 44.7447 56.816C44.6152 56.9454 44.5634 57.1006 44.5634 57.3335V59.3774H43.7866V55.9105H44.5634V56.2727H44.5893C44.6929 56.1433 44.8483 56.0398 45.0036 55.9881C45.159 55.9105 45.3402 55.8846 45.4956 55.8846C45.8581 55.8846 46.143 55.9881 46.3501 56.1951C46.5573 56.4021 46.6608 56.7125 46.6608 57.1006V59.3774H45.8581Z" fill="#EF7D00"/>
<path d="M48.4996 59.3773C48.3701 59.3773 48.2406 59.3515 48.1111 59.3257C48.0076 59.2998 47.904 59.248 47.8004 59.1704C47.7227 59.0928 47.6451 59.0151 47.5933 58.8858C47.5415 58.7564 47.5156 58.6271 47.5156 58.4459V54.2805H48.3183V58.3166C48.3183 58.4459 48.3442 58.5236 48.396 58.5753C48.4478 58.6271 48.5255 58.653 48.655 58.653H48.7844V59.3515H48.4996V59.3773Z" fill="#EF7D00"/>
<path d="M49.4312 55.2376V54.5132H50.208V55.2376H49.4312ZM49.4312 59.3773V55.9103H50.208V59.3773H49.4312Z" fill="#EF7D00"/>
<path d="M53.2381 59.3774V57.3335C53.2381 57.1006 53.1863 56.9454 53.0827 56.816C52.9792 56.6866 52.8237 56.6349 52.5908 56.6349C52.4094 56.6349 52.2541 56.6866 52.1246 56.816C51.9952 56.9454 51.9434 57.1006 51.9434 57.3335V59.3774H51.1406V55.9105H51.9434V56.2727H51.9693C52.0729 56.1433 52.2282 56.0398 52.3836 55.9881C52.5389 55.9105 52.7202 55.8846 52.8756 55.8846C53.2381 55.8846 53.5229 55.9881 53.73 56.1951C53.9372 56.4021 54.0408 56.7125 54.0408 57.1006V59.3774H53.2381Z" fill="#EF7D00"/>
<path d="M55.5415 57.8768C55.5415 57.9803 55.5673 58.0838 55.5933 58.1873C55.6192 58.2908 55.6709 58.3684 55.7228 58.446C55.7745 58.5236 55.8522 58.5754 55.9558 58.6271C56.0594 58.6789 56.1629 58.7048 56.2924 58.7048C56.396 58.7048 56.5255 58.6789 56.6808 58.6271C56.8362 58.5754 56.9915 58.4977 57.121 58.3684C57.1987 58.4719 57.2764 58.5495 57.3541 58.653C57.4318 58.7565 57.5094 58.8341 57.5871 58.9376C57.3799 59.1187 57.1728 59.2481 56.9398 59.3257C56.7067 59.4033 56.4996 59.4291 56.2665 59.4291C56.0852 59.4291 55.904 59.4033 55.7228 59.3516C55.5415 59.2998 55.3861 59.1963 55.2308 59.067C55.0754 58.9376 54.9718 58.7565 54.8682 58.5236C54.7647 58.2908 54.7388 58.0062 54.7388 57.644C54.7388 57.3076 54.7905 57.0231 54.8682 56.7902C54.9718 56.5573 55.0754 56.3763 55.2308 56.2469C55.3861 56.1175 55.5415 56.014 55.7228 55.9364C55.904 55.8846 56.0852 55.8329 56.2665 55.8329C56.4996 55.8329 56.7067 55.8846 56.888 55.9623C57.0692 56.0399 57.2246 56.1433 57.3541 56.2986C57.4835 56.4538 57.5871 56.6091 57.6389 56.816C57.7166 57.0231 57.7425 57.2559 57.7425 57.4887V57.8251H55.5415V57.8768ZM56.2147 56.6091C56.0335 56.6091 55.8781 56.6608 55.7487 56.7902C55.6192 56.9195 55.5673 57.1006 55.5415 57.3335H56.862C56.8362 57.1006 56.7844 56.9195 56.6549 56.7902C56.5514 56.6608 56.396 56.6091 56.2147 56.6091Z" fill="#EF7D00"/>
<path d="M63.1551 57.5922C63.1551 57.7992 63.1292 58.0062 63.1033 58.2132C63.0774 58.4201 63.0256 58.6271 62.922 58.8082C62.8444 58.9893 62.7149 59.1187 62.5336 59.248C62.3782 59.3515 62.1452 59.4292 61.8862 59.4292C61.7309 59.4292 61.5755 59.4033 61.4202 59.3515C61.2648 59.2998 61.1354 59.1963 61.0318 59.067H61.0059V59.4033H60.2031V54.3323H61.0059V56.2727H61.0318C61.1613 56.1434 61.2907 56.0657 61.4461 55.9881C61.6014 55.9364 61.7568 55.9105 61.8862 55.9105C62.1452 55.9105 62.3524 55.9622 62.5077 56.0657C62.6631 56.1693 62.7925 56.2986 62.8961 56.4797C62.9738 56.6349 63.0515 56.8161 63.0774 57.023C63.1292 57.1783 63.1551 57.3852 63.1551 57.5922ZM62.3265 57.6439C62.3265 57.5146 62.3265 57.4111 62.3006 57.2817C62.3006 57.1524 62.2488 57.0489 62.2229 56.9454C62.1711 56.8419 62.1193 56.7643 62.0157 56.7126C61.9381 56.6608 61.8086 56.609 61.6533 56.609C61.4978 56.609 61.3943 56.6349 61.3166 56.7126C61.239 56.7902 61.1613 56.8678 61.1094 56.9713C61.0577 57.0748 61.0318 57.1783 61.0318 57.3076C61.0059 57.437 61.0059 57.5405 61.0059 57.6439C61.0059 57.7475 61.0059 57.8769 61.0318 57.9803C61.0318 58.1097 61.0835 58.2131 61.1094 58.3166C61.1613 58.4201 61.213 58.4978 61.3166 58.5753C61.3943 58.653 61.5238 58.6788 61.6791 58.6788C61.8345 58.6788 61.9381 58.653 62.0417 58.5753C62.1193 58.4978 62.197 58.4201 62.2488 58.3166C62.3006 58.2131 62.3265 58.1097 62.3265 57.9803C62.3265 57.8769 62.3265 57.7475 62.3265 57.6439Z" fill="#EF7D00"/>
<path d="M65.3568 56.6348C65.1755 56.6348 65.0201 56.6865 64.8907 56.8159C64.7612 56.9453 64.7094 57.1005 64.7094 57.3334V59.4031H63.9326V55.9363H64.7094V56.3503H64.7353C64.9425 56.0397 65.2273 55.9104 65.5639 55.9104C65.6934 55.9104 65.8228 55.9363 65.9264 55.9622C66.03 55.988 66.1336 56.0397 66.2372 56.0915L65.9523 56.8159C65.8488 56.7642 65.7711 56.7124 65.6675 56.6865C65.538 56.6348 65.4604 56.6348 65.3568 56.6348Z" fill="#EF7D00"/>
<path d="M67.9194 55.8846C68.1783 55.8846 68.4114 55.9364 68.6186 56.0398C68.8257 56.1434 68.981 56.2727 69.1105 56.4797C69.1882 56.6091 69.2659 56.7902 69.3177 56.9713C69.3695 57.1524 69.3694 57.3852 69.3694 57.6181C69.3694 57.8768 69.3435 58.1096 69.3177 58.2908C69.2659 58.4719 69.2141 58.6529 69.1364 58.7823C69.007 58.9893 68.8257 59.1704 68.5926 59.2739C68.3596 59.3774 68.1007 59.4291 67.8417 59.4291C67.5828 59.4291 67.3497 59.3774 67.1425 59.2998C66.9354 59.2222 66.7801 59.0669 66.6506 58.8858C66.4693 58.6013 66.3657 58.1873 66.3657 57.644C66.3657 57.4628 66.3657 57.2818 66.3917 57.1006C66.4176 56.9454 66.4693 56.7902 66.5211 56.6608C66.6506 56.4021 66.8318 56.221 67.0649 56.0657C67.3239 55.9364 67.6087 55.8846 67.9194 55.8846ZM67.8935 56.5832C67.764 56.5832 67.6345 56.6091 67.531 56.6866C67.4274 56.7643 67.3497 56.8419 67.272 56.9713C67.2203 57.0747 67.1944 57.1783 67.1944 57.2818C67.1685 57.3852 67.1685 57.5146 67.1685 57.644C67.1685 57.7733 67.1685 57.9027 67.1944 58.0061C67.2203 58.1096 67.2461 58.2132 67.272 58.2908C67.3238 58.4201 67.4015 58.4978 67.5051 58.5754C67.6087 58.6529 67.7381 58.6788 67.8676 58.6788C68.023 58.6788 68.1524 58.6271 68.256 58.5495C68.3855 58.4719 68.4632 58.3425 68.515 58.1873C68.5408 58.1096 68.5667 58.032 68.5667 57.9545C68.5667 57.8509 68.5926 57.7216 68.5926 57.5922C68.5926 57.3335 68.5667 57.1265 68.4891 56.9971C68.4372 56.8678 68.3596 56.7643 68.256 56.6866C68.1524 56.635 68.023 56.5832 67.8935 56.5832Z" fill="#EF7D00"/>
<path d="M72.4516 59.3773C72.2703 59.1186 72.1149 58.8599 71.9337 58.6012C71.7782 58.3424 71.597 58.0837 71.4158 57.825C71.3381 57.9027 71.2604 58.0061 71.1827 58.0837C71.105 58.1614 71.0273 58.2649 70.9497 58.3424V59.3515H70.147V54.2805H70.9497V57.3335H70.9756L71.6488 56.5573L72.2444 55.9105H73.2024L71.9596 57.2558C72.1925 57.6181 72.4256 57.9544 72.6587 58.3166C72.8917 58.6788 73.1248 59.0151 73.3578 59.3773H72.4516Z" fill="#EF7D00"/>
<path d="M74.393 57.8768C74.393 57.9803 74.4189 58.0838 74.4449 58.1873C74.4707 58.2908 74.5225 58.3684 74.5743 58.446C74.6261 58.5236 74.7038 58.5754 74.8073 58.6271C74.9109 58.6789 75.0145 58.7048 75.144 58.7048C75.2476 58.7048 75.377 58.6789 75.5324 58.6271C75.6877 58.5754 75.8431 58.4977 75.9726 58.3684C76.0503 58.4719 76.128 58.5495 76.2056 58.653C76.2833 58.7565 76.361 58.8341 76.4387 58.9376C76.2315 59.1187 76.0244 59.2481 75.7913 59.3257C75.5583 59.4033 75.3512 59.4291 75.1181 59.4291C74.9368 59.4291 74.7556 59.4033 74.5743 59.3516C74.393 59.2998 74.2377 59.1963 74.0823 59.067C73.927 58.9376 73.8234 58.7565 73.7198 58.5236C73.6422 58.2908 73.5903 58.0062 73.5903 57.644C73.5903 57.3076 73.6422 57.0231 73.7198 56.7902C73.8234 56.5573 73.927 56.3763 74.0823 56.2469C74.2377 56.1175 74.393 56.014 74.5743 55.9364C74.7556 55.8846 74.9368 55.8329 75.1181 55.8329C75.3512 55.8329 75.5583 55.8846 75.7396 55.9623C75.9208 56.0399 76.0761 56.1433 76.2056 56.2986C76.3351 56.4538 76.4387 56.6091 76.4904 56.816C76.5681 57.0231 76.594 57.2559 76.594 57.4887V57.8251H74.393V57.8768ZM75.0663 56.6091C74.885 56.6091 74.7297 56.6608 74.6002 56.7902C74.4707 56.9195 74.419 57.1006 74.393 57.3335H75.7136C75.6877 57.1006 75.636 56.9195 75.5065 56.7902C75.4029 56.6608 75.2476 56.6091 75.0663 56.6091Z" fill="#EF7D00"/>
<path d="M78.7956 56.6348C78.6145 56.6348 78.4591 56.6865 78.3293 56.8159C78.2003 56.9453 78.1482 57.1005 78.1482 57.3334V59.4031H77.3457V55.9363H78.1226V56.3503H78.1482C78.3557 56.0397 78.6402 55.9104 78.9767 55.9104C79.1065 55.9104 79.2362 55.9363 79.3396 55.9622C79.443 55.988 79.5471 56.0397 79.6504 56.0915L79.3652 56.8159C79.2619 56.7642 79.1842 56.7124 79.0808 56.6865C78.9767 56.6348 78.8733 56.6348 78.7956 56.6348Z" fill="#EF7D00"/>
<path d="M16.7281 45.3804C16.7281 46.1048 16.1325 46.6999 15.4075 46.6999C14.6824 46.6999 14.0869 46.1048 14.0869 45.3804C14.0869 44.656 14.6824 44.0609 15.4075 44.0609C16.1325 44.0868 16.7281 44.656 16.7281 45.3804Z" fill="white"/>
<defs>
<linearGradient id="paint0_linear" x1="52.6649" y1="0.286175" x2="52.6649" y2="35.6024" gradientUnits="userSpaceOnUse">
<stop stop-color="#F39200"/>
<stop offset="1" stop-color="#F07E00"/>
</linearGradient>
</defs>
</svg>
